<svg xmlns="http://www.w3.org/2000/svg" xmlns:xlink="http://www.w3.org/1999/xlink" version="1.1" x="0px" y="0px" viewBox="0 0 100 125" enable-background="new 0 0 100 100" xml:space="preserve"><g><path d="M34.752,29.326H23.664v5.041h11.089V29.326z M32.736,32.35H25.68v-1.008h7.057V32.35z"/><path d="M92.214,70.658v-7.069c2.624-0.115,4.706-1.192,4.706-7.274c0-4.743-1.571-16.361-5.462-16.361   c-3.889,0-5.46,11.39-5.46,16.133c0,3.068,0.475,4.94,1.54,5.998c0.759,0.754,1.725,1.01,2.66,1.095v7.479H80.117V63.59   c2.624-0.113,4.706-1.17,4.706-7.252c0-4.743-1.571-16.337-5.462-16.337c-3.889,0-5.46,11.437-5.46,16.18   c0,3.068,0.475,5.034,1.539,6.093c0.764,0.758,1.718,1.104,2.66,1.244v7.141H68.02V48.537l4.188,2.335l0.982-1.76L43.825,32.735   l-11.089,6.184v-3.545H25.68v7.481L14.46,49.112l0.982,1.76l4.188-2.335v22.122H9.55V63.59c2.624-0.113,4.706-1.17,4.706-7.252   C14.256,51.595,12.685,40,8.794,40c-3.889,0-5.46,11.437-5.46,16.18c0,3.068,0.475,5.034,1.54,6.093   c0.763,0.758,1.717,1.104,2.66,1.244v7.141H3.501v2.016h16.129h7.057h16.13H68.02h29.235v-2.016H92.214z M7.534,61.474   c-0.537-0.113-0.948-0.31-1.239-0.6c-0.626-0.622-0.944-2.369-0.944-4.757c0-7.283,2.368-14.038,3.444-14.038   s3.446,6.943,3.446,14.227c0,4.553-0.951,5.187-2.69,5.266v-4.02H7.534V61.474z M27.696,37.391h3.024v2.653l-3.024,1.687V37.391z    M40.801,70.658H28.704v-9.822c0-3.34,2.713-6.056,6.048-6.056s6.049,2.716,6.049,6.056V70.658z M66.004,70.658H42.817v-9.822   c0-4.451-3.618-8.071-8.065-8.071s-8.065,3.62-8.065,8.071v9.822h-5.041V47.413l2.123-1.184l6.951-3.876v0.001l13.105-7.31   l22.179,12.369V70.658z M78.101,61.474c-0.536-0.113-0.947-0.31-1.239-0.6c-0.626-0.622-0.944-2.369-0.944-4.757   c0-7.283,2.368-14.038,3.444-14.038s3.445,6.943,3.445,14.227c0,4.553-0.951,5.187-2.689,5.266v-4.02h-2.017V61.474z    M90.198,61.474c-0.537-0.113-0.948-0.31-1.239-0.6c-0.626-0.622-0.944-2.369-0.944-4.757c0-7.283,2.367-14.038,3.443-14.038   s3.446,6.943,3.446,14.227c0,4.553-0.951,5.187-2.69,5.266v-4.02h-2.016V61.474z"/><path d="M60.963,57.553v-5.041H45.842v5.041v7.057h15.121V57.553z M58.947,62.593H47.858v-5.04h11.089V62.593z M58.947,55.536   H47.858v-1.008h11.089V55.536z"/></g><text x="0" y="115" fill="#000000" font-size="5px" font-weight="bold" font-family="'Helvetica Neue', Helvetica, Arial-Unicode, Arial, Sans-serif">Created by Iconic</text><text x="0" y="120" fill="#000000" font-size="5px" font-weight="bold" font-family="'Helvetica Neue', Helvetica, Arial-Unicode, Arial, Sans-serif">from the Noun Project</text></svg>